<?xml version="1.0" encoding="UTF-8"?>
<svg version="1.1" xmlns="http://www.w3.org/2000/svg" width="1080" height="1080">
<path d="M0 0 C4.62 0 9.24 0 14 0 C14.53625 0.98613281 15.0725 1.97226562 15.625 2.98828125 C22.29906647 15.16969065 29.34973559 27.11413628 36.4609375 39.04296875 C39.02001271 43.33727068 41.54293961 47.64659299 44 52 C46.61189152 49.62173986 48.2876684 47.08064312 50.08203125 44.046875 C50.67806152 43.04527344 51.2740918 42.04367187 51.88818359 41.01171875 C52.52320801 39.93535156 53.15823242 38.85898437 53.8125 37.75 C55.15431075 35.4944125 56.49677496 33.23921363 57.83984375 30.984375 C58.18178772 30.40917114 58.52373169 29.83396729 58.8760376 29.24133301 C62.50558072 23.13856138 66.18466076 17.06617897 69.875 11 C70.47546143 10.00967773 71.07592285 9.01935547 71.69458008 7.99902344 C72.24654053 7.0918457 72.79850098 6.18466797 73.3671875 5.25 C73.85300293 4.45078125 74.33881836 3.6515625 74.83935547 2.828125 C76 1 76 1 77 0 C81.29 0 85.58 0 90 0 C90 25.41 90 50.82 90 77 C84.39 77 78.78 77 73 77 C72.505 59.675 72.505 59.675 72 42 C70.040625 45.17625 68.08125 48.3525 66.0625 51.625 C64.85753721 53.54865735 63.65195351 55.47192614 62.4453125 57.39453125 C60.37314351 60.71912865 58.39389672 64.05315437 56.5546875 67.51171875 C56.19109131 68.16253418 55.82749512 68.81334961 55.45288086 69.48388672 C54.50069765 71.19868649 53.59053747 72.93663083 52.68359375 74.67578125 C48.91574425 77.93905702 45.96858602 78.25696201 41.05102539 78.01293945 C34.75563112 75.92287057 32.34682867 69.49833375 29.5 63.9375 C28.82192304 62.69365663 28.13965974 61.45208583 27.453125 60.21289062 C26.1857933 57.91146473 24.95132765 55.6014885 23.73242188 53.27319336 C21.89799689 49.80727794 19.94557864 46.40476262 18 43 C17.67 54.22 17.34 65.44 17 77 C11.39 77 5.78 77 0 77 C0 51.59 0 26.18 0 0 Z " fill="#FFFFFF" transform="translate(899,499)"/>
<path d="M0 0 C4.62 0 9.24 0 14 0 C14.89460938 1.60746094 15.78921875 3.21492188 16.7109375 4.87109375 C25.0200538 19.78333558 25.0200538 19.78333558 33.5625 34.5625 C33.9426123 35.20823975 34.32272461 35.85397949 34.71435547 36.51928711 C37.07873967 40.50898903 39.53423309 44.42782004 42.06225586 48.31616211 C43 50 43 50 43 52 C45.84830423 49.44824648 47.62425268 46.55007528 49.58984375 43.28515625 C49.9308461 42.72137268 50.27184845 42.15758911 50.6231842 41.57672119 C51.73206771 39.74109182 52.83479299 37.90184509 53.9375 36.0625 C54.69948712 34.79884143 55.46185936 33.53541502 56.22460938 32.2722168 C59.74694939 26.43381567 63.25036158 20.58406878 66.75390625 14.734375 C67.30763916 13.81003662 67.86137207 12.88569824 68.43188477 11.93334961 C69.45906713 10.21658132 70.48436701 8.49868498 71.50756836 6.77954102 C71.9588208 6.02342529 72.41007324 5.26730957 72.875 4.48828125 C73.26429688 3.83384033 73.65359375 3.17939941 74.0546875 2.50512695 C75 1 75 1 76 0 C79.59499796 -0.11109388 83.17884273 -0.06145187 86.77514648 -0.02905273 C87.83934814 -0.01946533 88.9035498 -0.00987793 90 0 C90.07712857 17.17356694 89.85970988 34.33049234 89.5 51.5 C89.4516027 53.89582889 89.40342465 56.29166223 89.35546875 58.6875 C89.23949252 64.45838736 89.12059904 70.22920748 89 76 C83.72 76 78.44 76 73 76 C72.505 58.675 72.505 58.675 72 41 C70.22625 43.805 68.4525 46.61 66.625 49.5 C66.03154785 50.42530518 65.4380957 51.35061035 64.82666016 52.30395508 C62.19981047 56.4093983 59.67787072 60.51474912 57.3984375 64.82421875 C51.76466894 75.25203118 51.76466894 75.25203118 46.921875 77.3046875 C43.18449792 77.60846445 41.37762228 77.70265385 38 76 C35.62562285 73.22661946 33.84699502 70.14061128 32 67 C31.06994141 65.47524048 31.06994141 65.47524048 30.12109375 63.91967773 C28.10304037 60.60341935 26.11132597 57.27286687 24.125 53.9375 C21.77375 49.998125 19.4225 46.05875 17 42 C16.67 53.22 16.34 64.44 16 76 C10.72 76 5.44 76 0 76 C0 50.92 0 25.84 0 0 Z " fill="#FFFFFF" transform="translate(95,500)"/>
<path d="M0 0 C8.0025 -0.04125 16.005 -0.0825 24.25 -0.125 C28.00165527 -0.15231201 28.00165527 -0.15231201 31.82910156 -0.18017578 C33.8496072 -0.18602636 35.87011524 -0.19112057 37.890625 -0.1953125 C38.90882324 -0.20554443 39.92702148 -0.21577637 40.97607422 -0.22631836 C54.50317489 -0.22954371 66.61932935 1.7411115 77 11 C83.61080349 19.87654525 84.39338873 29.37608865 83 40 C81.40100447 47.64951567 77.24794413 53.32624492 71 58 C68.75 58.71484375 68.75 58.71484375 67 59 C68.37391236 60.68838564 69.74919161 62.37565901 71.125 64.0625 C71.89070312 65.00222656 72.65640625 65.94195313 73.4453125 66.91015625 C76.2437873 70.31890085 79.11896919 73.66098762 82 77 C62.15702812 78.9671477 62.15702812 78.9671477 57.13574219 75.83837891 C55.64148087 74.32457494 54.37634576 72.78186097 53.125 71.0625 C50.50772115 67.48074359 48.51703334 65.34616357 44.07910156 64.33349609 C36.72118038 63.55869606 29.38284548 63.70285761 22 64 C22 58.72 22 53.44 22 48 C23.67707031 47.95101562 25.35414063 47.90203125 27.08203125 47.8515625 C29.32553508 47.77646614 31.56902393 47.70092136 33.8125 47.625 C34.91271484 47.5940625 36.01292969 47.563125 37.14648438 47.53125 C50.02808329 47.49138 50.02808329 47.49138 61.5625 42.6875 C64.57182979 39.369521 65.93054696 37.37876676 66.0625 32.859375 C65.84635049 28.77955309 65.35456637 26.49424402 62.9375 23.125 C56.83074791 18.70734955 50.90060312 17.55238213 43.5625 17.48828125 C42.88251953 17.47164429 42.20253906 17.45500732 41.50195312 17.43786621 C39.00160526 17.38074812 36.50074843 17.34798545 34 17.3125 C25.585 17.1578125 25.585 17.1578125 17 17 C17 36.8 17 56.6 17 77 C11.39 77 5.78 77 0 77 C0 51.59 0 26.18 0 0 Z " fill="#FFFFFF" transform="translate(518,499)"/>
<path d="M0 0 C8.0025 -0.04125 16.005 -0.0825 24.25 -0.125 C28.00165527 -0.15231201 28.00165527 -0.15231201 31.82910156 -0.18017578 C33.8496072 -0.18602636 35.87011524 -0.19112057 37.890625 -0.1953125 C38.90882324 -0.20554443 39.92702148 -0.21577637 40.97607422 -0.22631836 C52.98732168 -0.22918227 64.8737496 0.85709932 74.29296875 8.9765625 C80.91533756 15.80399555 83.03770666 22.56052896 83.4375 31.9375 C83.15131019 41.22674414 80.19431246 48.46179427 73.87890625 55.24609375 C71.68233831 57.29652827 69.36806161 59.15185586 67 61 C67.45439453 61.44915771 67.90878906 61.89831543 68.37695312 62.36108398 C70.42054239 64.38397536 72.46031223 66.41067513 74.5 68.4375 C75.21542969 69.14455078 75.93085937 69.85160156 76.66796875 70.58007812 C77.34472656 71.25361328 78.02148438 71.92714844 78.71875 72.62109375 C79.34716797 73.2442749 79.97558594 73.86745605 80.62304688 74.50952148 C82 76 82 76 82 77 C61.06768377 78.96500261 61.06768377 78.96500261 56.18652344 75.83837891 C54.79586257 74.31951178 53.67130583 72.79697841 52.5625 71.0625 C50.22297113 67.40757759 48.48235782 65.34435303 44.13085938 64.33349609 C36.75688174 63.55268387 29.39924455 63.70425771 22 64 C22 58.72 22 53.44 22 48 C23.60488281 47.95101562 25.20976563 47.90203125 26.86328125 47.8515625 C29.01303556 47.77646191 31.16277438 47.70091733 33.3125 47.625 C34.36501953 47.5940625 35.41753906 47.563125 36.50195312 47.53125 C50.72974708 47.25201511 50.72974708 47.25201511 63 41 C65.73417027 36.55697331 65.76034973 32.06633033 65 27 C61.83818224 21.56562573 57.887575 19.62662047 52 18 C49.10924952 17.59137285 46.26066515 17.51301439 43.34375 17.48828125 C42.64411133 17.47164429 41.94447266 17.45500732 41.22363281 17.43786621 C38.64938365 17.38071967 36.07463896 17.34797821 33.5 17.3125 C24.8375 17.1578125 24.8375 17.1578125 16 17 C16 36.8 16 56.6 16 77 C10.72 77 5.44 77 0 77 C0 51.59 0 26.18 0 0 Z " fill="#FFFFFF" transform="translate(813,499)"/>
<path d="M0 0 C23.76 0 47.52 0 72 0 C72 5.61 72 11.22 72 17 C53.85 17 35.7 17 17 17 C17 21.62 17 26.24 17 31 C30.53 31 44.06 31 58 31 C58 36.28 58 41.56 58 47 C44.47 47 30.94 47 17 47 C17 51.62 17 56.24 17 61 C35.15 61 53.3 61 72 61 C72 66.28 72 71.56 72 77 C48.24 77 24.48 77 0 77 C0 51.59 0 26.18 0 0 Z " fill="#FFFFFF" transform="translate(439,499)"/>
<path d="M0 0 C5.28 0 10.56 0 16 0 C16 10.56 16 21.12 16 32 C29.2 32 42.4 32 56 32 C56 21.44 56 10.88 56 0 C61.61 0 67.22 0 73 0 C73 25.41 73 50.82 73 77 C67.39 77 61.78 77 56 77 C56 67.43 56 57.86 56 48 C42.8 48 29.6 48 16 48 C16 57.57 16 67.14 16 77 C10.72 77 5.44 77 0 77 C0 51.59 0 26.18 0 0 Z " fill="#FFFFFF" transform="translate(357,499)"/>
<path d="M0 0 C23.43 0 46.86 0 71 0 C71 5.61 71 11.22 71 17 C52.85 17 34.7 17 16 17 C16 21.62 16 26.24 16 31 C29.86 31 43.72 31 58 31 C58 36.28 58 41.56 58 47 C44.14 47 30.28 47 16 47 C16 56.9 16 66.8 16 77 C10.72 77 5.44 77 0 77 C0 51.59 0 26.18 0 0 Z " fill="#FFFFFF" transform="translate(642,499)"/>
<path d="M0 0 C-0.89111289 6.61969576 -0.89111289 6.61969576 -1.53125 8.85546875 C-2.13741673 11.62868156 -2.09412962 14.22637754 -2.0625 17.0625 C-2.05347656 18.10535156 -2.04445313 19.14820313 -2.03515625 20.22265625 C-2.02355469 21.13917969 -2.01195312 22.05570313 -2 23 C-2 23.99 -2 24.98 -2 26 C-0.0624994 28.18777466 -0.0624994 28.18777466 2 30 C2.31227539 29.33991943 2.62455078 28.67983887 2.94628906 27.99975586 C4.37799918 24.97763941 5.81396295 21.95756264 7.25 18.9375 C7.98669922 17.37999023 7.98669922 17.37999023 8.73828125 15.79101562 C11.30611247 10.39857005 13.94272959 5.13184675 17 0 C18.82641602 0.1862793 18.82641602 0.1862793 21 1 C22.44116211 3.14770508 22.44116211 3.14770508 23.77734375 6.01953125 C24.28450928 7.09130615 24.7916748 8.16308105 25.31420898 9.26733398 C25.84989502 10.43723877 26.38558105 11.60714355 26.9375 12.8125 C27.50533039 14.0254123 28.07444261 15.23772525 28.64477539 16.44946289 C30.14356395 19.64337244 31.6245742 22.84519397 33.10058594 26.04968262 C34.57042096 29.23691851 36.05133419 32.41899814 37.53125 35.6015625 C39.19683238 39.18379263 40.85927471 42.76735788 42.50952148 46.35668945 C43.9929322 49.57762579 45.49043361 52.7912431 47 56 C47.51836426 57.10230957 48.03672852 58.20461914 48.57080078 59.34033203 C49.08497559 60.40493652 49.59915039 61.46954102 50.12890625 62.56640625 C50.58467041 63.51588135 51.04043457 64.46535645 51.51000977 65.44360352 C54.45888641 70.50303124 57.38527444 72.46871121 63 74 C63 75.32 63 76.64 63 78 C54.48669816 78.61409904 48.06370672 77.07600776 40.19921875 73.9140625 C38.57920708 73.28859024 38.57920708 73.28859024 36.9264679 72.65048218 C33.50648933 71.32583813 30.0970683 69.9761841 26.6875 68.625 C24.38022908 67.72483869 22.07229127 66.82638477 19.76367188 65.9296875 C16.51361799 64.6670347 13.2647428 63.40202428 10.0209198 62.1234436 C5.38042028 60.29507822 0.75883771 58.50374632 -4 57 C-4.15855469 57.53367187 -4.31710937 58.06734375 -4.48046875 58.6171875 C-8.97732997 72.97732997 -8.97732997 72.97732997 -13 77 C-14.99958364 77.04080783 -17.00045254 77.04254356 -19 77 C-18.33392561 72.59041892 -16.73375271 68.73427814 -14.9375 64.6875 C-14.65583984 64.04232422 -14.37417969 63.39714844 -14.08398438 62.73242188 C-13.3937257 61.15301642 -12.69746802 59.57623507 -12 58 C-18.9112428 58.79104586 -24.0429229 60.37085992 -28.546875 65.8984375 C-31.04750428 69.73763892 -32.77977057 73.56280207 -34 78 C-34.66 78 -35.32 78 -36 78 C-35.78270042 69.46605302 -33.19926651 64.19926651 -27.1875 58.1875 C-23.51084738 55.66430703 -20.22503417 54.38406292 -16 53 C-16.70125 52.484375 -17.4025 51.96875 -18.125 51.4375 C-27.59129456 43.41172852 -31.59679994 34.25579803 -33 22 C-33.38844766 15.92428023 -32.7652744 10.02653588 -32 4 C-31.67 4 -31.34 4 -31 4 C-30.96261719 5.01578125 -30.92523437 6.0315625 -30.88671875 7.078125 C-30.32240464 19.82260724 -29.01682025 31.51967769 -21 42 C-20.01 42.66 -19.02 43.32 -18 44 C-18.495 41.525 -18.495 41.525 -19 39 C-17.39592672 38.97291433 -15.7917215 38.95356517 -14.1875 38.9375 C-13.29417969 38.92589844 -12.40085937 38.91429687 -11.48046875 38.90234375 C-9 39 -9 39 -6 40 C-6.33 39.34 -6.66 38.68 -7 38 C-7.06996014 36.29297265 -7.08440154 34.58331997 -7.0625 32.875 C-7.05347656 31.96492187 -7.04445313 31.05484375 -7.03515625 30.1171875 C-7.02355469 29.41851563 -7.01195312 28.71984375 -7 28 C-8.32 27.67 -9.64 27.34 -11 27 C-12.35384615 19.73846154 -12.35384615 19.73846154 -10.5625 16 C-10.046875 15.34 -9.53125 14.68 -9 14 C-10.32 13.67 -11.64 13.34 -13 13 C-13 15.31 -13 17.62 -13 20 C-15.1875 20.8125 -15.1875 20.8125 -18 21 C-20.9863542 18.96384941 -22.66058749 17.32975311 -23.5703125 13.765625 C-24.04097659 10.07272215 -24.19061057 7.57183171 -23 4 C-18.75177626 4.47202486 -16.80010291 6.96655518 -14 10 C-13.4225 9.071875 -12.845 8.14375 -12.25 7.1875 C-9.79010381 3.70264707 -7.94718727 1.62997235 -3.875 0.3125 C-2 0 -2 0 0 0 Z M14 19 C11.36 24.61 8.72 30.22 6 36 C5.34 35.67 4.68 35.34 4 35 C3.01 37.97 2.02 40.94 1 44 C-0.32 43.67 -1.64 43.34 -3 43 C-1.66732655 47.1556484 -0.10089737 49.14019002 3.375 51.75 C4.14585937 52.34296875 4.91671875 52.9359375 5.7109375 53.546875 C7.87686329 54.9218313 9.49421488 55.56520623 12 56 C11.71125 55.34773437 11.4225 54.69546875 11.125 54.0234375 C7.34345507 45.12105047 7.34345507 45.12105047 8 40 C8.33 39.67 8.66 39.34 9 39 C9.20753906 39.6290625 9.41507813 40.258125 9.62890625 40.90625 C13.981391 52.9985089 22.35337968 59.97700956 33.5 66 C34.325 66.33 35.15 66.66 36 67 C36.66 66.67 37.32 66.34 38 66 C35.68973269 61.23473688 33.37849061 56.46994816 31.06640625 51.70556641 C30.28261997 50.09013149 29.49908432 48.47457494 28.71582031 46.85888672 C24.19982481 37.54392413 19.66237432 28.24283285 15 19 C14.67 19 14.34 19 14 19 Z M3 32 C4 35 4 35 4 35 Z M-9 51 C-9 51.33 -9 51.66 -9 52 C-6.69 52 -4.38 52 -2 52 C-2 51.67 -2 51.34 -2 51 C-4.31 51 -6.62 51 -9 51 Z " fill="#FFFFFF" transform="translate(748,498)"/>
<path d="M0 0 C24.42 0 48.84 0 74 0 C74 5.61 74 11.22 74 17 C64.1 17 54.2 17 44 17 C44 36.8 44 56.6 44 77 C38.39 77 32.78 77 27 77 C27 57.2 27 37.4 27 17 C18.09 17 9.18 17 0 17 C0 11.39 0 5.78 0 0 Z " fill="#FFFFFF" transform="translate(276,499)"/>
<path d="M0 0 C3 1 3 1 4.625 3.9375 C8.14119838 13.04260317 8.16335872 25.09950497 4.625 34.1875 C3 37 3 37 0 38 C-0.33 39.65 -0.66 41.3 -1 43 C-2.98 43.495 -2.98 43.495 -5 44 C-5.33 45.32 -5.66 46.64 -6 48 C-6.66 48 -7.32 48 -8 48 C-8.66 49.32 -9.32 50.64 -10 52 C-11.98 51.34 -13.96 50.68 -16 50 C-15.979375 50.804375 -15.95875 51.60875 -15.9375 52.4375 C-16 55 -16 55 -17 56 C-19.67058851 56.14115161 -22.32432238 56.04247107 -25 56 C-25 54.68 -25 53.36 -25 52 C-25.99 52 -26.98 52 -28 52 C-27.34 53.32 -26.68 54.64 -26 56 C-27 57 -27 57 -29.3125 57.375 C-32 57 -32 57 -34.375 54.75 C-36 52 -36 52 -35.75 49.6875 C-35.5025 49.130625 -35.255 48.57375 -35 48 C-34.01 48.33 -33.02 48.66 -32 49 C-32.20625 48.401875 -32.4125 47.80375 -32.625 47.1875 C-33 45 -33 45 -31 42 C-27.375 41.8125 -27.375 41.8125 -24 42 C-23.34 40.68 -22.68 39.36 -22 38 C-21.01 38.33 -20.02 38.66 -19 39 C-18.67 38.01 -18.34 37.02 -18 36 C-17.195625 36.020625 -16.39125 36.04125 -15.5625 36.0625 C-13.06645115 36.29633621 -13.06645115 36.29633621 -12 35 C-12.99 35 -13.98 35 -15 35 C-14.67 33.68 -14.34 32.36 -14 31 C-12.68 30.67 -11.36 30.34 -10 30 C-10 30.66 -10 31.32 -10 32 C-6.04 30.515 -6.04 30.515 -2 29 C-2.020625 28.195625 -2.04125 27.39125 -2.0625 26.5625 C-2 24 -2 24 -1 23 C-0.90061137 21.23146708 -0.87030777 19.45881725 -0.875 17.6875 C-0.87242187 16.72199219 -0.86984375 15.75648438 -0.8671875 14.76171875 C-0.89678881 12.08431551 -0.89678881 12.08431551 -1.56640625 9.91015625 C-2.35236264 6.44769974 -0.95043755 3.35448545 0 0 Z M-4 33 C-4 34.32 -4 35.64 -4 37 C-3.34 36.67 -2.68 36.34 -2 36 C-2.66 35.01 -3.32 34.02 -4 33 Z M-7 39 C-7.99 39.66 -8.98 40.32 -10 41 C-8.68 41.33 -7.36 41.66 -6 42 C-6.33 41.01 -6.66 40.02 -7 39 Z M-22 44 C-22.33 45.98 -22.66 47.96 -23 50 C-22.34 50 -21.68 50 -21 50 C-21 48.02 -21 46.04 -21 44 C-21.33 44 -21.66 44 -22 44 Z " fill="#FFFFFF" transform="translate(273,518)"/>
<path d="M0 0 C1.65 0 3.3 0 5 0 C6.65 3.3 8.3 6.6 10 10 C11.65 9.67 13.3 9.34 15 9 C17.92056367 11.44512307 19.88895939 13.83343909 22 17 C22 18.32 22 19.64 22 21 C20.68 21.33 19.36 21.66 18 22 C18.33 22.5775 18.66 23.155 19 23.75 C20 26 20 26 20 30 C20.66 29.67 21.32 29.34 22 29 C23.99956611 28.95834237 26.00043389 28.95834237 28 29 C28.66 29 29.32 29 30 29 C33 29 33 29 34.38671875 30.35546875 C38.69371531 36.42147893 38.69371531 36.42147893 38 41 C35.8125 41.75 35.8125 41.75 33 42 C31.32916181 40.67189785 29.66270287 39.33827304 28 38 C26.00039988 37.960008 23.99952758 37.95653201 22 38 C20.125 36.6875 20.125 36.6875 19 35 C19 34.01 19 33.02 19 32 C16.525 32.495 16.525 32.495 14 33 C13.61328125 32.45730469 13.2265625 31.91460938 12.828125 31.35546875 C12.30734375 30.64003906 11.7865625 29.92460938 11.25 29.1875 C10.73953125 28.47980469 10.2290625 27.77210938 9.703125 27.04296875 C7.97517642 24.97022309 6.21473524 23.52624146 4 22 C4.33 20.68 4.66 19.36 5 18 C8.465 17.505 8.465 17.505 12 17 C12 16.34 12 15.68 12 15 C11.01 15.495 11.01 15.495 10 16 C7.125 16.375 7.125 16.375 4 16 C-0.08738859 12.57543118 -0.57007668 9.03404487 -1.01953125 3.98828125 C-1 2 -1 2 0 0 Z M27 31 C25.68 31.99 24.36 32.98 23 34 C25.475 34.495 25.475 34.495 28 35 C27.67 33.68 27.34 32.36 27 31 Z " fill="#FFFFFF" transform="translate(199,534)"/>
<path d="M0 0 C3.97457883 0.56779698 6.89477635 1.39832613 10 4 C10.66576187 6.05627716 11.05661339 8.01919716 11.34765625 10.16015625 C11.85569979 12.20952766 11.85569979 12.20952766 14.05859375 13.24609375 C14.69925781 13.49488281 15.33992188 13.74367188 16 14 C15.8360726 21.8387101 14.77569532 28.58756403 10 35 C3.49180904 40.61759641 -2.06031668 42.19355397 -10.5625 42.25 C-11.34302734 42.270625 -12.12355469 42.29125 -12.92773438 42.3125 C-15.19140625 42.328125 -15.19140625 42.328125 -19 42 C-19.66 41.01 -20.32 40.02 -21 39 C-19.11524388 37.11524388 -15.84128962 37.2044951 -13.3125 36.75 C-7.38188803 35.49637471 -3.91397807 34.65446041 0 30 C2.07259214 26.21215919 3.07882671 22.99949874 3.4375 18.75 C4 15 4 15 6.0625 13 C6.701875 12.67 7.34125 12.34 8 12 C7.95231597 10.12119128 7.95231597 10.12119128 7 8 C6.01 7.34 5.02 6.68 4 6 C1 4 1 4 0.125 1.75 C0.08375 1.1725 0.0425 0.595 0 0 Z " fill="#FFFFFF" transform="translate(247,509)"/>
<path d="M0 0 C4.30726616 2.94154762 7.56644721 6.4659601 9.76171875 11.203125 C9.94921875 14.515625 9.94921875 14.515625 9.76171875 17.203125 C7.55616101 14.99756726 6.85837107 13.23972324 5.63671875 10.390625 C3.01900175 5.09395786 0.27329549 2.35374024 -5.23828125 0.203125 C-12.88199068 -2.1030416 -22.18933959 -0.32134583 -29.23828125 3.203125 C-30.07893757 5.16612354 -30.70345473 7.16383371 -31.359375 9.1953125 C-32.35499116 11.46974231 -33.29024786 12.66986427 -35.23828125 14.203125 C-38.92578125 14.890625 -38.92578125 14.890625 -42.23828125 15.203125 C-42.56711147 11.66820019 -42.59817111 9.76060145 -40.64453125 6.734375 C-30.78445564 -3.63791233 -12.65796867 -6.84735829 0 0 Z " fill="#FFFFFF" transform="translate(782.23828125,481.796875)"/>
<path d="M0 0 C0.33 1.65 0.66 3.3 1 5 C0.236875 5.556875 -0.52625 6.11375 -1.3125 6.6875 C-4.11278491 8.82176585 -4.11278491 8.82176585 -5.5 11.75 C-5.995 12.4925 -6.49 13.235 -7 14 C-8.66666667 14 -10.33333333 14 -12 14 C-13.35386936 15.65002828 -14.68678142 17.3174387 -16 19 C-18.75 19.8125 -18.75 19.8125 -21 20 C-21.92054342 16.98731243 -22.27861489 15.57270838 -20.875 12.6875 C-19 11 -19 11 -16.3125 10.75 C-15.549375 10.8325 -14.78625 10.915 -14 11 C-13.773125 9.9275 -13.54625 8.855 -13.3125 7.75 C-10.8449568 0.69987656 -7.18790262 -0.56375707 0 0 Z " fill="#FFFFFF" transform="translate(226,500)"/>
<path d="M0 0 C5.36101457 1.30756453 9.57565559 3.64862313 13 8 C13.86011934 10.81309619 13.94858333 13.01783327 14 16 C9.77560958 17.0138537 7.69978048 17.34989024 3.75 15.375 C1.00383275 13.0033101 -0.54750083 11.30847034 -2 8 C-2.1875 5.1875 -2.1875 5.1875 -2 3 C-1.34 2.67 -0.68 2.34 0 2 C0 1.34 0 0.68 0 0 Z " fill="#FFFFFF" transform="translate(257,501)"/>
<path d="M0 0 C2.59806172 2.26090867 4.45700062 4.91400125 6 8 C6.1875 11.5 6.1875 11.5 6 15 C4 17 4 17 1.375 17.125 C0.59125 17.08375 -0.1925 17.0425 -1 17 C-1.31453125 16.31292969 -1.6290625 15.62585938 -1.953125 14.91796875 C-2.59507812 13.56638672 -2.59507812 13.56638672 -3.25 12.1875 C-3.66765625 11.29417969 -4.0853125 10.40085937 -4.515625 9.48046875 C-6.06539789 6.89071669 -7.48400766 5.61819166 -10 4 C-9.625 2.0625 -9.625 2.0625 -9 0 C-5.73616149 -1.63191925 -3.46807101 -0.88171297 0 0 Z " fill="#FFFFFF" transform="translate(209,525)"/>
<path d="M0 0 C5.02964252 -0.29586132 7.9338496 -0.0496128 12 3 C12.5775 3.4125 13.155 3.825 13.75 4.25 C15.67926042 6.95096459 15.69422213 9.75875455 16 13 C8.02124577 13.78223081 8.02124577 13.78223081 4.0625 10.75 C1.04975755 6.73301007 0 5.10161938 0 0 Z " fill="#FFFFFF" transform="translate(723,521)"/>
<path d="M0 0 C2.475 0.495 2.475 0.495 5 1 C5.33 1.99 5.66 2.98 6 4 C6.99 3.67 7.98 3.34 9 3 C16.22072878 2.29862348 21.05019195 2.76902539 27 7 C27 7.99 27 8.98 27 10 C26.02160156 9.90460938 25.04320312 9.80921875 24.03515625 9.7109375 C16.61391849 9.08337954 10.22130546 8.84627732 3 11 C2.4465236 8.92446352 2 7.15634036 2 5 C1.34 4.34 0.68 3.68 0 3 C0 2.01 0 1.02 0 0 Z " fill="#FFFFFF" transform="translate(226,497)"/>
<path d="M0 0 C0.99 0.33 1.98 0.66 3 1 C4.30210767 3.89019227 4.81258139 6.84512 5 10 C3.625 13.5625 3.625 13.5625 2 16 C0.68 16 -0.64 16 -2 16 C-4.50304378 12.24543433 -4.45280074 10.45254066 -4 6 C-2 2.5625 -2 2.5625 0 0 Z " fill="#FFFFFF" transform="translate(734,488)"/>
<path d="M0 0 C15.38107616 1.05692748 15.38107616 1.05692748 19.9375 4.4375 C21 6 21 6 21 9 C18.43471112 8.40615522 15.87324546 7.80038512 13.3125 7.1875 C12.59126953 7.02185547 11.87003906 6.85621094 11.12695312 6.68554688 C6.97810309 5.68148728 3.47403572 4.6106659 0 2 C0 1.34 0 0.68 0 0 Z " fill="#FFFFFF" transform="translate(218,556)"/>
<path d="M0 0 C2.23990189 1.87862739 2.38258682 2.84471337 2.9375 5.625 C2.19886719 5.34785156 1.46023437 5.07070313 0.69921875 4.78515625 C-6.27827147 2.29382874 -12.65984613 0.91644307 -20.0625 0.625 C-19.7325 -0.365 -19.4025 -1.355 -19.0625 -2.375 C-12.44127301 -4.11742816 -6.14684161 -2.75980644 0 0 Z " fill="#FFFFFF" transform="translate(252.0625,497.375)"/>
<path d="M0 0 C0.598125 0.20625 1.19625 0.4125 1.8125 0.625 C1.4825 2.935 1.1525 5.245 0.8125 7.625 C-1.5625 8.6875 -1.5625 8.6875 -4.1875 9.625 C-4.8475 9.295 -5.5075 8.965 -6.1875 8.625 C-5.875 5.25 -5.875 5.25 -5.1875 1.625 C-2.1875 -0.375 -2.1875 -0.375 0 0 Z " fill="#FFFFFF" transform="translate(218.1875,515.375)"/>
<path d="M0 0 C0.33 1.32 0.66 2.64 1 4 C-0.0725 4.28875 -1.145 4.5775 -2.25 4.875 C-5.09400364 5.72820109 -7.43508983 6.5636503 -10 8 C-10.75 6.25 -10.75 6.25 -11 4 C-8.00042166 -0.49936751 -5.13756651 -0.39519742 0 0 Z " fill="#FFFFFF" transform="translate(232,509)"/>
<path d="M0 0 C0 0.99 0 1.98 0 3 C-3 4 -3 4 -6 3 C-6 2.01 -6 1.02 -6 0 C-3.50907189 -1.24546405 -2.58919267 -0.7767578 0 0 Z " fill="#FFFFFF" transform="translate(246,508)"/>
<path d="M0 0 C1.65 0 3.3 0 5 0 C5 0.99 5 1.98 5 3 C3.68 3.33 2.36 3.66 1 4 C0.67 2.68 0.34 1.36 0 0 Z " fill="#FFFFFF" transform="translate(234,508)"/>
</svg>
