<?xml version="1.0" standalone="no"?>
<!DOCTYPE svg PUBLIC "-//W3C//DTD SVG 20010904//EN"
 "http://www.w3.org/TR/2001/REC-SVG-20010904/DTD/svg10.dtd">
<svg version="1.0" xmlns="http://www.w3.org/2000/svg"
 width="500.000000pt" height="500.000000pt" viewBox="0 0 500.000000 500.000000"
 preserveAspectRatio="xMidYMid meet">

<g transform="translate(0.000000,500.000000) scale(0.100000,-0.100000)"
fill="#000000" stroke="none">
<path d="M3508 2773 c7 -3 16 -2 19 1 4 3 -2 6 -13 5 -11 0 -14 -3 -6 -6z"/>
<path d="M3452 2744 c-22 -15 -30 -44 -12 -44 11 0 45 48 38 55 -2 3 -14 -2
-26 -11z"/>
<path d="M3386 2715 c-6 -17 2 -45 14 -45 4 0 10 8 12 18 9 34 -13 59 -26 27z"/>
<path d="M1090 2707 c3 -2 23 -10 44 -16 22 -6 35 -6 30 -1 -10 10 -83 27 -74
17z"/>
<path d="M1050 2691 c0 -6 -8 -11 -18 -11 -10 0 -23 -5 -30 -12 -12 -12 -17
-48 -6 -48 13 0 72 70 64 75 -6 4 -10 1 -10 -4z"/>
<path d="M1284 2676 c-3 -8 -4 -25 -2 -38 3 -21 9 -23 63 -26 l60 -3 -3 -134
-3 -135 40 0 41 0 0 135 0 134 68 3 67 3 0 35 0 35 -163 3 c-135 2 -163 0
-168 -12z"/>
<path d="M1660 2516 l0 -176 33 0 32 0 0 62 0 63 98 3 97 3 0 -66 0 -65 35 0
35 0 -2 173 -3 172 -32 3 -33 3 0 -75 0 -76 -100 0 -99 0 2 73 2 72 -32 3 -33
3 0 -175z"/>
<path d="M2040 2515 l0 -175 160 0 160 0 0 34 0 35 -107 0 c-60 0 -116 0 -125
1 -13 0 -18 8 -18 33 l0 32 92 0 93 0 3 33 3 32 -95 0 -96 0 0 35 0 35 125 0
125 0 0 40 0 40 -160 0 -160 0 0 -175z"/>
<path d="M2408 2684 c-5 -4 -8 -83 -8 -176 l0 -168 35 0 35 0 0 135 0 135 98
0 c86 0 101 -3 121 -21 30 -28 25 -75 -11 -102 -20 -15 -44 -20 -99 -21 l-73
-2 0 -30 c0 -28 1 -29 56 -32 47 -2 60 -7 82 -32 22 -25 34 -30 71 -30 25 0
45 3 45 8 0 4 -12 18 -25 31 -29 27 -31 39 -10 47 27 11 55 69 55 115 0 57
-30 106 -78 126 -40 18 -281 32 -294 17z"/>
<path d="M2977 2683 c-4 -3 -7 -82 -7 -175 l0 -168 35 0 35 0 0 64 0 64 49 7
c27 4 71 5 98 4 47 -3 48 -3 51 28 l3 32 -98 3 -98 3 -3 33 -3 32 130 0 131 0
0 40 0 40 -158 0 c-87 0 -162 -3 -165 -7z"/>
<path d="M3428 2679 c-19 -11 -25 -39 -8 -39 6 0 5 -11 -2 -26 -10 -22 -10
-28 5 -39 10 -7 15 -19 11 -28 -3 -8 -1 -25 6 -36 25 -48 48 -6 24 45 -11 23
-15 50 -12 84 5 53 4 56 -24 39z"/>
<path d="M3511 2624 c-17 -36 -31 -70 -31 -75 0 -21 18 -6 34 28 l18 37 54
-109 c29 -61 54 -113 54 -118 0 -4 -17 1 -37 12 -39 20 -72 51 -91 86 -8 14
-11 16 -12 5 0 -9 7 -26 16 -38 17 -25 7 -29 -22 -8 -10 8 -32 13 -49 10 -24
-3 -25 -2 -7 4 21 7 22 8 7 30 -9 12 -27 22 -41 22 -27 0 -31 -12 -9 -30 12
-10 13 -16 4 -26 -6 -8 -17 -14 -23 -14 -16 -1 -51 -32 -65 -57 -19 -37 -12
-38 12 -2 22 33 70 59 84 46 3 -4 -1 -23 -10 -42 -20 -42 -20 -45 -6 -45 5 0
19 20 30 45 11 25 24 45 30 45 5 0 64 -20 131 -45 67 -25 133 -45 147 -44 25
0 25 1 4 9 -21 8 -64 90 -148 278 -15 34 -31 62 -35 62 -5 0 -22 -30 -39 -66z"/>
<path d="M3770 2516 l0 -176 35 0 35 0 0 135 0 135 93 0 c110 0 137 -13 137
-64 0 -18 -6 -40 -13 -50 -15 -20 -75 -34 -142 -32 -44 1 -45 1 -45 -31 l0
-33 53 0 c46 0 57 -4 82 -30 24 -26 36 -30 79 -30 l50 0 -32 33 -33 34 36 37
c32 34 35 43 35 95 0 44 -5 65 -21 85 -38 49 -73 59 -216 64 l-133 5 0 -177z"/>
<path d="M4167 2683 c-4 -3 -7 -82 -7 -175 l0 -168 40 0 40 0 0 82 0 83 25
-37 c14 -20 25 -40 25 -43 0 -3 11 -23 25 -45 20 -31 31 -40 53 -40 23 0 34
12 80 88 l52 87 0 -88 0 -87 35 0 35 0 0 175 0 175 -23 0 c-17 0 -32 -16 -62
-65 -22 -35 -57 -92 -79 -126 l-38 -62 -18 29 c-10 16 -43 73 -74 127 -46 78
-62 97 -80 97 -12 0 -26 -3 -29 -7z"/>
<path d="M440 2511 l0 -171 35 0 35 0 0 81 c0 48 4 78 9 74 6 -3 28 -39 51
-80 36 -66 45 -75 69 -75 25 0 36 12 84 88 l56 87 1 -87 0 -88 35 0 35 0 0
170 0 170 -27 0 c-31 0 -37 -8 -125 -157 -34 -57 -53 -82 -60 -75 -6 6 -38 59
-72 119 -56 99 -64 108 -94 111 l-32 3 0 -170z"/>
<path d="M1073 2674 c-27 -11 -11 -19 37 -19 29 0 49 4 47 10 -4 11 -64 17
-84 9z"/>
<path d="M1194 2664 c-7 -3 -9 -14 -6 -26 4 -19 3 -19 -19 -8 l-24 13 19 -22
c11 -12 22 -17 25 -12 3 5 18 7 34 6 32 -4 36 14 9 38 -20 18 -20 18 -38 11z"/>
<path d="M3360 2640 c0 -16 2 -30 4 -30 2 0 11 -3 20 -6 25 -10 21 43 -4 56
-18 10 -20 8 -20 -20z"/>
<path d="M1035 2629 c-11 -17 -2 -18 19 -3 17 12 17 14 4 14 -9 0 -20 -5 -23
-11z"/>
<path d="M955 2619 c-4 -6 -5 -13 -2 -16 7 -7 27 6 27 18 0 12 -17 12 -25 -2z"/>
<path d="M990 2594 c0 -9 5 -14 12 -12 18 6 21 28 4 28 -9 0 -16 -7 -16 -16z"/>
<path d="M1172 2578 c-7 -7 -12 -24 -12 -38 0 -31 -20 -51 -70 -74 l-35 -16
50 4 c62 5 108 49 103 99 -3 34 -17 44 -36 25z"/>
<path d="M1260 2534 c1 -97 -8 -125 -38 -123 -15 1 -15 2 1 6 9 2 17 14 17 25
0 20 -1 20 -18 5 -10 -10 -24 -17 -30 -17 -16 0 -15 -12 1 -30 6 -8 1 -6 -12
5 l-24 20 7 -23 c5 -14 3 -29 -4 -37 -10 -12 -9 -15 9 -15 11 0 20 5 18 12 -1
7 7 12 17 13 11 0 35 19 53 43 28 37 33 52 33 97 0 34 -5 57 -15 65 -13 11
-15 4 -15 -46z"/>
<path d="M3350 2582 c0 -18 33 -52 51 -52 24 0 24 15 -1 40 -20 20 -50 27 -50
12z"/>
<path d="M930 2555 c0 -8 5 -15 10 -15 6 0 15 -12 20 -26 11 -27 30 -24 30 5
0 20 -30 51 -48 51 -7 0 -12 -7 -12 -15z"/>
<path d="M3320 2555 c0 -21 55 -95 71 -95 4 0 -6 14 -22 31 -16 17 -29 37 -29
44 0 8 -4 17 -10 20 -5 3 -10 3 -10 0z"/>
<path d="M925 2519 c-13 -19 4 -59 25 -59 24 0 24 -1 4 38 -17 35 -20 37 -29
21z"/>
<path d="M980 2466 c0 -16 28 -42 36 -33 7 6 -18 47 -28 47 -5 0 -8 -6 -8 -14z"/>
<path d="M962 2411 c35 -46 63 -38 38 10 -6 11 -21 19 -36 19 l-26 0 24 -29z"/>
<path d="M1030 2414 c45 -17 74 -24 64 -14 -5 5 -25 12 -44 15 -19 3 -28 3
-20 -1z"/>
<path d="M1126 2403 c-13 -14 -5 -33 14 -33 11 0 20 6 20 14 0 15 -24 28 -34
19z"/>
<path d="M1054 2377 c-3 -9 -12 -13 -21 -10 -11 5 -14 3 -9 -6 5 -7 14 -10 22
-7 7 3 16 1 19 -4 4 -6 10 -10 16 -10 14 0 11 26 -6 40 -12 10 -16 9 -21 -3z"/>
<path d="M1100 2361 c0 -5 7 -12 16 -15 24 -9 28 -7 14 9 -14 17 -30 20 -30 6z"/>
</g>
</svg>
